<svg width="16" height="16" viewBox="0 0 16 16" fill="none" xmlns="http://www.w3.org/2000/svg">
<path d="M1.95196 8.96C1.84045 9.07144 1.75199 9.20376 1.69164 9.3494C1.63128 9.49505 1.60022 9.65115 1.60022 9.8088C1.60022 9.96645 1.63128 10.1226 1.69164 10.2682C1.75199 10.4138 1.84045 10.5462 1.95196 10.6576L5.34556 14.0512C5.5706 14.2762 5.87577 14.4025 6.19396 14.4025C6.51216 14.4025 6.81733 14.2762 7.04236 14.0512L8.81196 12.2816C8.77506 11.8506 8.82456 11.4165 8.95756 11.0048L8.39516 11.568L4.43516 7.608L9.52636 2.5168C9.60137 2.44181 9.7031 2.39969 9.80916 2.39969C9.91523 2.39969 10.017 2.44181 10.092 2.5168L13.4856 5.9112C13.5606 5.98621 13.6027 6.08793 13.6027 6.194C13.6027 6.30007 13.5606 6.40179 13.4856 6.4768L11.0056 8.9576C11.4167 8.82329 11.8508 8.77376 12.2816 8.812L14.0512 7.0424C14.2761 6.81737 14.4025 6.5122 14.4025 6.194C14.4025 5.8758 14.2761 5.57063 14.0512 5.3456L10.6576 1.9512C10.5461 1.83969 10.4138 1.75123 10.2682 1.69087C10.1225 1.63052 9.96641 1.59946 9.80876 1.59946C9.65111 1.59946 9.49501 1.63052 9.34937 1.69087C9.20373 1.75123 9.0714 1.83969 8.95996 1.9512L1.95196 8.96ZM2.51676 10.092C2.44178 10.017 2.39965 9.91527 2.39965 9.8092C2.39965 9.70314 2.44178 9.60141 2.51676 9.5264L3.86876 8.1744L7.82876 12.1344L6.47676 13.4864C6.40175 13.5614 6.30003 13.6035 6.19396 13.6035C6.0879 13.6035 5.98617 13.5614 5.91116 13.4864L2.51676 10.092ZM12 14.4C12.6365 14.4 13.2469 14.1471 13.697 13.6971C14.1471 13.247 14.4 12.6365 14.4 12C14.4 11.3635 14.1471 10.753 13.697 10.3029C13.2469 9.85286 12.6365 9.6 12 9.6C11.3634 9.6 10.753 9.85286 10.3029 10.3029C9.85282 10.753 9.59996 11.3635 9.59996 12C9.59996 12.6365 9.85282 13.247 10.3029 13.6971C10.753 14.1471 11.3634 14.4 12 14.4Z" fill="#E4F1FA"/>
</svg>
